<svg xmlns="http://www.w3.org/2000/svg" width="800" height="1200" viewBox="0 0 800 1200" fill="none">
  <defs>
    <linearGradient id="sky" x1="400" y1="0" x2="400" y2="1200" gradientUnits="userSpaceOnUse">
      <stop offset="0%" stop-color="#0a1628"/>
      <stop offset="45%" stop-color="#0f2847"/>
      <stop offset="100%" stop-color="#061018"/>
    </linearGradient>
    <radialGradient id="glow" cx="50%" cy="18%" r="55%">
      <stop offset="0%" stop-color="#1a4a3a" stop-opacity="0.55"/>
      <stop offset="100%" stop-color="#061018" stop-opacity="0"/>
    </radialGradient>
    <pattern id="stars" width="120" height="120" patternUnits="userSpaceOnUse">
      <path d="M60 8 L72 44 L110 44 L80 66 L92 102 L60 80 L28 102 L40 66 L10 44 L48 44 Z" fill="#c9a227" fill-opacity="0.08"/>
      <circle cx="60" cy="60" r="2.5" fill="#d4af37" fill-opacity="0.12"/>
      <path d="M60 24 L66 42 L84 42 L70 54 L76 72 L60 62 L44 72 L50 54 L36 42 L54 42 Z" fill="#c9a227" fill-opacity="0.05"/>
    </pattern>
    <pattern id="arabesque" width="80" height="80" patternUnits="userSpaceOnUse">
      <path d="M40 0 L80 40 L40 80 L0 40 Z" stroke="#d4af37" stroke-opacity="0.06" stroke-width="0.8" fill="none"/>
      <circle cx="40" cy="40" r="14" stroke="#d4af37" stroke-opacity="0.05" stroke-width="0.6" fill="none"/>
      <path d="M40 10 L50 40 L40 70 L30 40 Z" fill="#c9a227" fill-opacity="0.03"/>
    </pattern>
  </defs>
  <rect width="800" height="1200" fill="url(#sky)"/>
  <rect width="800" height="1200" fill="url(#glow)"/>
  <rect width="800" height="1200" fill="url(#stars)"/>
  <rect width="800" height="1200" fill="url(#arabesque)"/>
  <path d="M400 920 C320 860 260 820 220 760 C180 700 160 640 160 580 C160 500 210 440 280 420 C300 380 340 350 400 350 C460 350 500 380 520 420 C590 440 640 500 640 580 C640 640 620 700 580 760 C540 820 480 860 400 920 Z" fill="#0d1f2d" fill-opacity="0.35"/>
  <path d="M120 1180 L680 1180 L680 1080 C620 1040 540 1020 400 1020 C260 1020 180 1040 120 1080 Z" fill="#081018" fill-opacity="0.5"/>
  <ellipse cx="400" cy="180" rx="90" ry="90" fill="#f5e6b8" fill-opacity="0.04"/>
  <path d="M400 120 C430 170 470 200 470 250 C470 300 430 330 400 380 C370 330 330 300 330 250 C330 200 370 170 400 120 Z" fill="#d4af37" fill-opacity="0.06"/>
</svg>
